<?xml version="1.0" encoding="utf-8"?>
<!-- Generator: Adobe Illustrator 21.0.2, SVG Export Plug-In . SVG Version: 6.00 Build 0)  -->
<svg version="1.1" xmlns="http://www.w3.org/2000/svg" xmlns:xlink="http://www.w3.org/1999/xlink" x="0px" y="0px"
	 viewBox="0 0 1275.5 963.8" style="enable-background:new 0 0 1275.5 963.8;" xml:space="preserve">
<style type="text/css">
	.st0{stroke:#000000;stroke-miterlimit:10;}
	.st1{fill:#FFFFFF;}
	.st2{fill:#FFFFFF;stroke:#FFFFFF;stroke-miterlimit:10;}
</style>
<g id="Layer_7">
	<rect x="-90.2" y="-59.9" class="st0" width="1452" height="1080"/>
</g>
<g id="MOONAGE">
	<g>
		<path class="st1" d="M331.4,622.1h1.1l33.9,44.6l33.9-44.6h1.1v76h-4.3v-59.6c0-2.7,0.2-6.5,0.2-6.5s-2.1,3.6-4.1,6.2l-26.4,34.7
			h-1.2l-26.1-34.7c-1.9-2.4-4.1-6.2-4.1-6.2s0.2,3.9,0.2,6.5v59.6h-4.3V622.1z"/>
		<path class="st1" d="M430.1,660.5c0-22.9,17.2-38.4,38.4-38.4c21.2,0,38.4,15.6,38.4,38.4c0,22.9-17.2,38.4-38.4,38.4
			C447.4,698.9,430.1,683.4,430.1,660.5z M502.4,660.5c0-19.7-14.5-34.3-33.8-34.3s-33.8,14.7-33.8,34.3c0,19.7,14.5,34.3,33.8,34.3
			S502.4,680.2,502.4,660.5z"/>
		<path class="st1" d="M530.7,660.5c0-22.9,17.2-38.4,38.4-38.4c21.2,0,38.4,15.6,38.4,38.4c0,22.9-17.2,38.4-38.4,38.4
			C547.9,698.9,530.7,683.4,530.7,660.5z M602.9,660.5c0-19.7-14.5-34.3-33.8-34.3c-19.3,0-33.8,14.7-33.8,34.3
			c0,19.7,14.5,34.3,33.8,34.3C588.4,694.8,602.9,680.2,602.9,660.5z"/>
		<path class="st1" d="M643.6,636.7c-1.4-1.9-3.4-5-3.4-5s0.3,3.4,0.3,5.6v60.7h-4.2v-76h1.3l48.1,62.3c1.4,1.9,3.4,5,3.4,5
			s-0.3-3.4-0.3-5.6V623h4.2v76h-1.3L643.6,636.7z"/>
		<path class="st1" d="M750.6,622.2h1.3l31.8,75.9h-8.4l-5.1-12.6h-38l-5,12.6h-7.8L750.6,622.2z M767.4,678.6l-13.3-33.3
			c-1.4-3.5-2.9-8.9-2.9-8.9s-1.5,5.4-3,8.9L735,678.6H767.4z"/>
		<path class="st1" d="M799.9,660.5c0-22.6,16.8-38.4,38.7-38.4c10.8,0,20,3.1,26.2,9.7l-5.4,5.4c-4.9-5.1-11.5-8-20.8-8
			c-17.7,0-30.4,13.4-30.4,31.3c0,17.9,12.8,31.3,31,31.3c10.3,0,17.6-3.1,22.2-6.8v-15.5h-22.3v-7.1h29.8v26.2
			c-5.5,5.4-15.6,10.4-29.7,10.4C816.8,698.9,799.9,683.1,799.9,660.5z"/>
		<path class="st1" d="M897.3,623h45.7v7.1h-37.8v35.2H939v7h-33.7V691h39.3v7.1h-47.3V623z"/>
	</g>
</g>
<g id="PICTURES">
	<g>
		<path class="st1" d="M648.9,726.1h7.9c9.6,0,14.5,5.3,14.5,13.2c0,7.7-4.9,13.1-14.5,13.1h-4.2v8.7h-3.7V726.1z M656.7,749.2
			c7.9,0,10.8-4.1,10.8-9.9c0-5.8-2.9-9.9-10.8-9.9h-4v19.8H656.7z"/>
		<path class="st1" d="M689.5,726.1h3.8v35h-3.8V726.1z"/>
		<path class="st1" d="M711.3,743.7c0-10.6,8-17.9,18-17.9c6.2,0,10.9,2.3,13.9,6.8l-2.8,2.1c-2.3-3.3-6-5.5-11.1-5.5
			c-8.2,0-14.1,6.2-14.1,14.6s5.9,14.6,14.1,14.6c5.1,0,9-2.2,11.5-5.9l2.9,2c-3.1,4.5-8.1,7.2-14.4,7.2
			C719.4,761.6,711.3,754.2,711.3,743.7z"/>
		<path class="st1" d="M768.5,729.4h-10.8v-3.3H783v3.3h-10.8v31.7h-3.7V729.4z"/>
		<path class="st1" d="M799.5,749.2v-23.1h3.7V749c0,6.2,3.4,9.3,8.9,9.3c5.4,0,8.9-3.1,8.9-9.3v-22.8h3.7v23.1
			c0,8.2-5.5,12.4-12.6,12.4C804.9,761.6,799.5,757.4,799.5,749.2z"/>
		<path class="st1" d="M867,761.2h-4.4l-6.8-9.6c-1.2,0.2-2.5,0.3-3.7,0.3h-4.2v9.3h-3.7v-35h7.9c9.6,0,14.5,5.4,14.5,12.9
			c0,5.3-2.5,9.4-7.3,11.3L867,761.2z M851.9,748.7c7.9,0,10.9-4.1,10.9-9.6c0-5.5-3-9.6-10.9-9.6h-4v19.2H851.9z"/>
		<path class="st1" d="M885.3,726.1h21.3v3.3H889v16.4h15.7v3.2H889v8.8h18.4v3.3h-22.1V726.1z"/>
		<path class="st1" d="M922.2,754.5l3.1-1.6c1.6,2.9,4.1,5.5,9,5.5c4.1,0,7.3-2.3,7.3-6c0-3.6-2.2-5.4-6.6-7.3l-2.8-1.3
			c-5-2.3-7.7-4.7-7.7-9.6c0-5,4-8.4,9.2-8.4c4.7,0,7.6,2.2,9.5,5.3l-3,1.9c-1.3-2.2-3.2-3.8-6.5-3.8c-3.5,0-5.6,2-5.6,5
			c0,3.1,1.6,4.5,5.6,6.3l2.8,1.3c5.8,2.6,8.8,5.5,8.8,10.7c0,5.8-4.6,9.3-10.9,9.3C927.7,761.6,924,758.2,922.2,754.5z"/>
	</g>
</g>
<g id="Layer_5">
	<polygon class="st2" points="639.6,203.1 639.6,593.9 330.4,593.9 	"/>
	<polygon class="st2" points="828.7,203.1 828.7,593.9 519.6,593.9 	"/>
</g>
<g id="Layer_6">
	<path d="M829.6,569.1c-64.5,0-116.8-52.3-116.8-116.8s52.3-116.8,116.8-116.8V569.1z"/>
	<path class="st2" d="M946.3,452.4c0,64.5-52.3,116.8-116.8,116.8V335.6C894.1,335.6,946.3,387.9,946.3,452.4z"/>
</g>
</svg>
